HIERARCHY
ROOT Hips
{
    OFFSET   0.000000   0.000000   0.000000
    CHANNELS 6 Xposition Yposition Zposition Zrotation Xrotation Yrotation
    JOINT Chest
    {
        OFFSET   0.000000   8.007240   0.000000
        CHANNELS 3 Zrotation Xrotation Yrotation
        JOINT Chest2
        {
            OFFSET   0.000000  22.077100   0.000000
            CHANNELS 3 Zrotation Xrotation Yrotation
            JOINT Neck
            {
                OFFSET   0.000000  23.254800   0.000000
                CHANNELS 3 Zrotation Xrotation Yrotation
                JOINT Head
                {
                    OFFSET   0.000000  14.370000   1.956600
                    CHANNELS 3 Zrotation Xrotation Yrotation
                    End Site
                    {
                        OFFSET   0.000000  19.566000   0.000000
                    }
                }
            }
            JOINT LeftCollar
            {
                OFFSET   3.911900  19.017000  -0.467064
                CHANNELS 3 Zrotation Xrotation Yrotation
                JOINT LeftShoulder
                {
                    OFFSET  10.383700   0.000000   0.000000
                    CHANNELS 3 Zrotation Xrotation Yrotation
                    JOINT LeftElbow
                    {
                        OFFSET  26.662100   0.001476   0.000517
                        CHANNELS 3 Zrotation Xrotation Yrotation
                        JOINT LeftWrist
                        {
                            OFFSET  28.869000  -0.000025  -0.000106
                            CHANNELS 3 Zrotation Xrotation Yrotation
                            JOINT LeftFinger0
                            {
                                OFFSET   2.044660  -2.323460   3.252850
                                CHANNELS 3 Zrotation Xrotation Yrotation
                                JOINT LeftFinger01
                                {
                                    OFFSET   3.088130   0.000000   0.000000
                                    CHANNELS 3 Zrotation Xrotation Yrotation
                                    JOINT LeftFinger02
                                    {
                                        OFFSET   2.639460   0.000000   0.000000
                                        CHANNELS 3 Zrotation Xrotation Yrotation
                                        End Site
                                        {
                                            OFFSET   2.582190   0.000000   0.000000
                                        }
                                    }
                                }
                            }
                            JOINT LeftFinger1
                            {
                                OFFSET   8.364480   0.000000   3.252850
                                CHANNELS 3 Zrotation Xrotation Yrotation
                                JOINT LeftFinger11
                                {
                                    OFFSET   4.646930   0.000000   0.000000
                                    CHANNELS 3 Zrotation Xrotation Yrotation
                                    JOINT LeftFinger12
                                    {
                                        OFFSET   2.323460   0.000000   0.000000
                                        CHANNELS 3 Zrotation Xrotation Yrotation
                                        End Site
                                        {
                                            OFFSET   2.273050   0.000000   0.000000
                                        }
                                    }
                                }
                            }
                            JOINT LeftFinger2
                            {
                                OFFSET   8.364490   0.000015   1.078090
                                CHANNELS 3 Zrotation Xrotation Yrotation
                                JOINT LeftFinger21
                                {
                                    OFFSET   5.111620   0.000000   0.000000
                                    CHANNELS 3 Zrotation Xrotation Yrotation
                                    JOINT LeftFinger22
                                    {
                                        OFFSET   2.788160   0.000016   0.000000
                                        CHANNELS 3 Zrotation Xrotation Yrotation
                                        End Site
                                        {
                                            OFFSET   2.727660   0.000000   0.000000
                                        }
                                    }
                                }
                            }
                            JOINT LeftFinger3
                            {
                                OFFSET   7.899780   0.000017  -1.078090
                                CHANNELS 3 Zrotation Xrotation Yrotation
                                JOINT LeftFinger31
                                {
                                    OFFSET   4.646930   0.000000   0.000000
                                    CHANNELS 3 Zrotation Xrotation Yrotation
                                    JOINT LeftFinger32
                                    {
                                        OFFSET   2.323470   0.000000   0.000000
                                        CHANNELS 3 Zrotation Xrotation Yrotation
                                        End Site
                                        {
                                            OFFSET   2.273050   0.000000   0.000000
                                        }
                                    }
                                }
                            }
                            JOINT LeftFinger4
                            {
                                OFFSET   7.435090   0.000000  -3.252850
                                CHANNELS 3 Zrotation Xrotation Yrotation
                                JOINT LeftFinger41
                                {
                                    OFFSET   3.717550   0.000000   0.000000
                                    CHANNELS 3 Zrotation Xrotation Yrotation
                                    JOINT LeftFinger42
                                    {
                                        OFFSET   1.858770   0.000000   0.000000
                                        CHANNELS 3 Zrotation Xrotation Yrotation
                                        End Site
                                        {
                                            OFFSET   1.818440   0.000000   0.000000
                                        }
                                    }
                                }
                            }
                        }
                    }
                }
            }
            JOINT RightCollar
            {
                OFFSET  -3.911900  19.017000  -0.467063
                CHANNELS 3 Zrotation Xrotation Yrotation
                JOINT RightShoulder
                {
                    OFFSET -10.383700   0.000019   0.000000
                    CHANNELS 3 Zrotation Xrotation Yrotation
                    JOINT RightElbow
                    {
                        OFFSET -26.662100   0.001175   0.000102
                        CHANNELS 3 Zrotation Xrotation Yrotation
                        JOINT RightWrist
                        {
                            OFFSET -28.869000   0.000016  -0.000079
                            CHANNELS 3 Zrotation Xrotation Yrotation
                            JOINT RightFinger0
                            {
                                OFFSET  -2.044660  -2.323490   3.252850
                                CHANNELS 3 Zrotation Xrotation Yrotation
                                JOINT RightFinger01
                                {
                                    OFFSET  -3.088140   0.000000   0.000000
                                    CHANNELS 3 Zrotation Xrotation Yrotation
                                    JOINT RightFinger02
                                    {
                                        OFFSET  -2.639460   0.000000   0.000000
                                        CHANNELS 3 Zrotation Xrotation Yrotation
                                        End Site
                                        {
                                            OFFSET  -2.582190   0.000000   0.000000
                                        }
                                    }
                                }
                            }
                            JOINT RightFinger1
                            {
                                OFFSET  -8.364480   0.000000   3.252850
                                CHANNELS 3 Zrotation Xrotation Yrotation
                                JOINT RightFinger11
                                {
                                    OFFSET  -4.646930   0.000000   0.000000
                                    CHANNELS 3 Zrotation Xrotation Yrotation
                                    JOINT RightFinger12
                                    {
                                        OFFSET  -2.323470   0.000000   0.000000
                                        CHANNELS 3 Zrotation Xrotation Yrotation
                                        End Site
                                        {
                                            OFFSET  -2.273050   0.000000   0.000000
                                        }
                                    }
                                }
                            }
                            JOINT RightFinger2
                            {
                                OFFSET  -8.364480   0.000000   1.078090
                                CHANNELS 3 Zrotation Xrotation Yrotation
                                JOINT RightFinger21
                                {
                                    OFFSET  -5.111620   0.000000   0.000000
                                    CHANNELS 3 Zrotation Xrotation Yrotation
                                    JOINT RightFinger22
                                    {
                                        OFFSET  -2.788160   0.000000   0.000000
                                        CHANNELS 3 Zrotation Xrotation Yrotation
                                        End Site
                                        {
                                            OFFSET  -2.727660   0.000000   0.000000
                                        }
                                    }
                                }
                            }
                            JOINT RightFinger3
                            {
                                OFFSET  -7.899780   0.000000  -1.078090
                                CHANNELS 3 Zrotation Xrotation Yrotation
                                JOINT RightFinger31
                                {
                                    OFFSET  -4.646930   0.000000   0.000000
                                    CHANNELS 3 Zrotation Xrotation Yrotation
                                    JOINT RightFinger32
                                    {
                                        OFFSET  -2.323470   0.000000   0.000000
                                        CHANNELS 3 Zrotation Xrotation Yrotation
                                        End Site
                                        {
                                            OFFSET  -2.273050   0.000000   0.000000
                                        }
                                    }
                                }
                            }
                            JOINT RightFinger4
                            {
                                OFFSET  -7.435090   0.000000  -3.252850
                                CHANNELS 3 Zrotation Xrotation Yrotation
                                JOINT RightFinger41
                                {
                                    OFFSET  -3.717550   0.000000   0.000000
                                    CHANNELS 3 Zrotation Xrotation Yrotation
                                    JOINT RightFinger42
                                    {
                                        OFFSET  -1.858770   0.000000   0.000000
                                        CHANNELS 3 Zrotation Xrotation Yrotation
                                        End Site
                                        {
                                            OFFSET  -1.818440   0.000000   0.000000
                                        }
                                    }
                                }
                            }
                        }
                    }
                }
            }
        }
    }
    JOINT LeftHip
    {
        OFFSET   9.783040   0.000000   0.000000
        CHANNELS 3 Zrotation Xrotation Yrotation
        JOINT LeftKnee
        {
            OFFSET   0.000032 -41.789100  -0.002222
            CHANNELS 3 Zrotation Xrotation Yrotation
            JOINT LeftAnkle
            {
                OFFSET   0.000087 -41.133200  -0.000135
                CHANNELS 3 Zrotation Xrotation Yrotation
                JOINT LeftToe
                {
                    OFFSET   0.000000  -6.358960  14.674500
                    CHANNELS 3 Zrotation Xrotation Yrotation
                    End Site
                    {
                        OFFSET   0.000000   0.000000   3.913200
                    }
                }
            }
        }
    }
    JOINT RightHip
    {
        OFFSET  -9.783040   0.000000   0.000000
        CHANNELS 3 Zrotation Xrotation Yrotation
        JOINT RightKnee
        {
            OFFSET   0.000047 -41.789100  -0.000896
            CHANNELS 3 Zrotation Xrotation Yrotation
            JOINT RightAnkle
            {
                OFFSET  -0.000117 -41.133300  -0.000248
                CHANNELS 3 Zrotation Xrotation Yrotation
                JOINT RightToe
                {
                    OFFSET   0.000000  -6.358970  14.674500
                    CHANNELS 3 Zrotation Xrotation Yrotation
                    End Site
                    {
                        OFFSET   0.000000   0.000000   3.913200
                    }
                }
            }
        }
    }
}
MOTION
Frames: 5
Frame Time:   0.016667
 -1.704820  89.373500  -0.056846  -0.556348  -3.254600   0.356786   0.763408   3.788110  -0.749015   1.581700   7.565540  -1.553770  -0.847867  -0.712393  -0.008341  -1.389380  -1.445910   3.126090 -10.702000  -0.036732   3.020350 -70.431300   9.915250  -5.581880   0.022772   0.556024 -14.170600  10.051700 -11.607200   7.921640  36.172200  30.028900 -54.972400 -35.809200   0.001871   0.001505 -12.904600   0.002428   0.000115 -33.104100   1.691960  -2.599490 -27.116500  -0.000604   0.005204 -18.988000   0.003850   0.006472 -28.641400  -0.576912   1.034390 -38.079100  -0.000574   0.005274 -25.360700  -0.005777   0.002899 -28.461000  -2.510910   4.600250 -36.897700   0.000000   0.007539 -24.573900  -0.001204   0.005186 -33.707300  -3.331310   4.985790 -50.778500   0.001314   0.000857 -33.818500   0.000397   0.000885  10.812900   0.159364   7.239090  69.214500   8.985460  -2.194070  -2.266300   2.689130  13.996200 -13.532500 -15.778400  -5.011110 -31.625100  23.833100  63.204000  35.157600   0.001745  -0.008035  12.570400   0.004570  -0.002333  33.929200   9.945510  14.399100  28.790700   0.007181  -0.007785  20.153500   0.003015  -0.008693  28.742100   5.046480   9.245160  42.200000   0.000193   0.011090  28.105200   0.010624   0.001030  29.035800   3.806180   6.818760  43.893700  -0.002157  -0.002205  29.233200   0.010791  -0.004996  39.177700  -0.847861  -1.036580  58.778400  -0.001860   0.007077  39.146400   0.001305  -0.005409   1.820180   6.719960   2.424150  -0.171677   0.110512  11.270000  -1.403050  -3.614590   1.031830  -0.000000   0.000000   0.000000  -0.265552   8.015630  -6.336330   1.517290   0.477375  -9.084160  -1.397790  -4.596460  -1.751300  -0.000000   0.000000   0.000000
 -1.705150  89.373500  -0.056900  -0.560480  -3.263800   0.355948   0.763261   3.787880  -0.748981   1.581390   7.565080  -1.553690  -0.847780  -0.712140  -0.008343  -1.389230  -1.445490   3.131580 -10.701800  -0.032141   3.021860 -70.437700   9.942710  -5.592990   0.019130   0.557866 -14.196000  10.032700 -11.607500   7.900470  36.183500  30.059000 -54.999100 -35.801500   0.001868   0.001503 -12.900800   0.002436   0.000127 -33.102100   1.691890  -2.607340 -27.114900  -0.000608   0.005196 -18.984000   0.003850   0.006471 -28.641500  -0.576886   1.034390 -38.069400  -0.000574   0.005271 -25.354200  -0.005778   0.002897 -28.460900  -2.510820   4.599710 -36.891800   0.000000   0.007539 -24.569900  -0.001192   0.005187 -33.701800  -3.330920   4.985780 -50.770200   0.001318   0.000849 -33.813000   0.000402   0.000881  10.817100   0.164334   7.239080  69.216600   8.987170  -2.186550  -2.266350   2.689070  14.001500 -13.540600 -15.783800  -5.009830 -31.620400  23.832700  63.204600  35.157100   0.001737  -0.008048  12.570500   0.004562  -0.002347  33.938300   9.952470  14.403900  28.799300   0.007169  -0.007781  20.159500   0.003018  -0.008684  28.778100   5.046480   9.245150  42.219800   0.000190   0.011093  28.118400   0.010624   0.001029  29.041100   3.806190   6.817480  43.901600  -0.002171  -0.002224  29.238400   0.010778  -0.004992  39.181200  -0.847798  -1.036580  58.783500  -0.001877   0.007074  39.149800   0.001295  -0.005402   1.826490   6.710440   2.424280  -0.178160   0.158411  11.274400  -1.409540  -3.640240   1.024740  -0.000000   0.000000  -0.000000  -0.266285   8.013250  -6.330600   1.517960   0.491303  -9.084490  -1.396580  -4.604240  -1.751370  -0.000000   0.000000  -0.000000
 -1.705470  89.373500  -0.056954  -0.567095  -3.279870   0.353042   0.763040   3.787660  -0.748911   1.580940   7.564620  -1.553530  -0.847650  -0.711886  -0.008350  -1.389030  -1.445080   3.139170 -10.699100  -0.020930   3.032290 -70.451600   9.988470  -5.622660   0.011072   0.571097 -14.234800  10.011500 -11.606300   7.869000  36.213300  30.100200 -55.035200 -35.789100   0.001865   0.001494 -12.894600   0.002444   0.000149 -33.096700   1.691790  -2.615190 -27.110400  -0.000616   0.005175 -18.977300   0.003850   0.006467 -28.641500  -0.576851   1.034390 -38.052300  -0.000574   0.005264 -25.342800  -0.005782   0.002890 -28.460900  -2.510690   4.599180 -36.881600   0.000000   0.007538 -24.563100  -0.001180   0.005188 -33.691200  -3.330530   4.985780 -50.754100   0.001329   0.000826 -33.802200   0.000416   0.000872  10.824500   0.174135   7.239060  69.220200   8.993950  -2.172940  -2.266500   2.688980  14.009000 -13.552100 -15.790200  -5.006940 -31.615700  23.832300  63.205200  35.153500   0.001722  -0.008070  12.570600   0.004544  -0.002375  33.951500   9.963340  14.411900  28.811800   0.007142  -0.007766  20.168200   0.003020  -0.008659  28.832700   5.046470   9.245140  42.248400   0.000188   0.011100  28.137400   0.010625   0.001026  29.049000   3.806200   6.815380  43.913500  -0.002206  -0.002270  29.246400   0.010744  -0.004982  39.187900  -0.847681  -1.036570  58.793400  -0.001920   0.007064  39.156400   0.001269  -0.005385   1.836320   6.700920   2.424530  -0.186781   0.216861  11.285300  -1.419060  -3.675720   1.011920  -0.000000   0.000000   0.000000  -0.267205   7.996100  -6.320760   1.515060   0.539278  -9.085500  -1.395360  -4.612020  -1.751520   0.000000   0.000000  -0.000000
 -1.704170  89.373500  -0.053510  -0.571658  -3.292720   0.347461   0.762890   3.787710  -0.748799   1.580630   7.564730  -1.553300  -0.847572  -0.711932  -0.008361  -1.389490  -1.445090   3.142110 -10.690400  -0.004365   3.055830 -70.468000  10.020400  -5.662970   0.001870   0.611374 -14.262400  10.009700 -11.585400   7.848580  36.237700  30.125900 -55.027700 -35.778200   0.001884   0.001470 -12.889200   0.002435   0.000167 -33.085000   1.691750  -2.611740 -27.100800  -0.000629   0.005146 -18.970200   0.003852   0.006459 -28.641600  -0.576836   1.038250 -38.032400  -0.000574   0.005253 -25.329600  -0.005788   0.002881 -28.460600  -2.510630   4.602910 -36.870200   0.000036   0.007536 -24.555500  -0.001189   0.005174 -33.675800  -3.333130   4.989640 -50.731300   0.001347   0.000789 -33.787000   0.000438   0.000858  10.831200   0.186614   7.239030  69.224900   9.009720  -2.158540  -2.265340   2.677950  14.010900 -13.555800 -15.791000  -5.002850 -31.616200  23.831100  63.199200  35.143400   0.001709  -0.008085  12.570800   0.004519  -0.002405  33.957000   9.972060  14.420300  28.817900   0.007106  -0.007737  20.172500   0.003011  -0.008618  28.864400   5.046480   9.245160  42.261500   0.000189   0.011110  28.146100   0.010624   0.001021  29.053900   3.805880   6.813760  43.920800  -0.002261  -0.002339  29.251200   0.010690  -0.004966  39.196700  -0.847527  -1.036580  58.806500  -0.001985   0.007051  39.165100   0.001229  -0.005358   1.842360   6.708770   2.424830  -0.192473   0.229163  11.301900  -1.424480  -3.689400   0.999168  -0.000000   0.000000  -0.000000  -0.265335   7.890800  -6.311480   1.500190   0.661542  -9.087900  -1.396320  -4.601350  -1.751740  -0.000000   0.000000   0.000000
 -1.701120  89.373400  -0.046798  -0.576211  -3.309500   0.340240   0.762818   3.788040  -0.748724   1.580500   7.565440  -1.553160  -0.847535  -0.712251  -0.008368  -1.390780  -1.445200   3.142950 -10.676500   0.016219   3.091660 -70.492000  10.061700  -5.730310  -0.008376   0.663389 -14.276900  10.017100 -11.556700   7.838190  36.245700  30.140500 -55.010900 -35.771800   0.001916   0.001453 -12.885500   0.002422   0.000189 -33.076700   1.691740  -2.605920 -27.094100  -0.000646   0.005107 -18.965900   0.003857   0.006449 -28.641600  -0.576830   1.045020 -38.019900  -0.000573   0.005238 -25.321300  -0.005796   0.002869 -28.460300  -2.510580   4.609900 -36.863100   0.000094   0.007534 -24.550800  -0.001198   0.005150 -33.665100  -3.338330   4.996660 -50.716200   0.001370   0.000742 -33.777000   0.000468   0.000840  10.838600   0.198007   7.239010  69.227300   9.025990  -2.145280  -2.264670   2.665230  14.013400 -13.561000 -15.791900  -4.998330 -31.619800  23.831100  63.191400  35.133200   0.001689  -0.008111  12.571000   0.004485  -0.002445  33.961200   9.976860  14.425400  28.822100   0.007061  -0.007699  20.175600   0.002995  -0.008567  28.891400   5.046500   9.245220  42.269500   0.000190   0.011121  28.151500   0.010622   0.001014  29.057600   3.805390   6.812170  43.926400  -0.002332  -0.002426  29.255000   0.010623  -0.004946  39.203100  -0.847427  -1.036650  58.816100  -0.002067   0.007035  39.171500   0.001180  -0.005324   1.847650   6.736970   2.425130  -0.203347   0.230907  11.322000  -1.427270  -3.693260   0.985890   0.000000   0.000000   0.000000  -0.263874   7.800320  -6.301850   1.488870   0.749756  -9.089650  -1.397260  -4.590670  -1.751890   0.000000   0.000000   0.000000
